<svg xmlns="http://www.w3.org/2000/svg" viewBox="0 0 200 200" preserveAspectRatio="xMidYMid meet"><path d="M173.5 122.3L169.6 121.7L168.3 121.9L167.4 122.6L165.6 122.5L163.3 122.5L161 123.3L159.7 123.6L158 122.9L154.7 120.6L152.8 119.1L151.3 118.7L149.9 119.1L144.6 119.7L143.4 120.6L141 121.6L138.5 122.1L135 122.4L133.2 122.4L132.2 122.9L131.3 124.3L130.7 125.8L130.2 126.4L125.8 127.1L124.9 127.9L124.6 128.7L124.7 129.5L121.2 128.7L118.5 129.3L117.9 129.9L117.3 130.8L117.7 131.7L118.6 132.7L119.6 135.2L119.9 137.7L119.3 139.1L117.4 140.1L113.2 141.2L109.2 140.7L107.5 141.1L104.5 141.3L101.8 141.6L97.6 142.6L93.8 143.2L90.4 141.1L86.4 139.7L82.2 138.8L80.7 139.4L80.1 139.9L76.5 138.1L74.9 137.4L74.2 136.7L72.7 134.3L71.8 134.2L68.9 135.1L66.1 135.1L64.4 134.9L59.4 135L58.7 136.7L58.1 136.9L57 137.2L54.3 137.1L50.9 138.3L47.2 139L44.4 139.1L41.4 138.7L39.6 139L35.8 139.1L33.4 140.9L29.7 140.8L26.5 140.5L26.9 139.9L27.5 132.7L29.1 129.5L29 128.9L28.7 128.4L27.3 127.8L26.3 126.1L24.2 121.5L23 120.6L19.8 119.7L16.9 118.3L14.4 116.6L10 112.3L12.3 111.9L12.9 111L15.2 108.6L15.4 107.5L15.2 106.8L13.7 105.7L12.7 103.2L13.4 100.9L13.5 99.7L12.7 98.5L13.5 97.1L15.2 96.3L16.2 96L20.4 95.9L23.1 92.9L24.8 92L26.5 90.3L27.3 89.7L28 88.4L28.3 87.1L24.9 85.2L23.7 83.8L22.2 82.3L20.2 81.2L16.1 79.4L14.5 77.6L13.8 75.2L12.7 73.3L11.5 72.1L11.2 71.2L10.7 70L10.6 67.7L11.6 64.6L12.2 63.5L13.6 63.2L17.3 61.5L17.5 59.4L18.1 58.1L19.3 57.3L20.4 56.8L22.4 58.1L27.3 60L29.7 61.4L29.6 62.3L28.5 63.2L26.4 64L25.1 65.2L24.8 66.6L25.1 67.6L26.6 68.5L35.4 67.3L44.3 67.9L56.3 69.8L64.3 70.5L70.2 69.6L81.1 71.2L91.2 72.7L100.9 73.2L106.4 72L110.2 70.4L113.5 67.4L121.7 63.5L129.5 61.3L139.9 59.5L146.8 58.9L147.8 59.5L156.5 63.1L160.5 63.1L163.6 63.7L164.8 64.7L165.6 64.9L169.8 64L171.6 66L174.6 68.8L179.5 70.2L183.9 71L185.3 71.2L190 71.1L189.3 78.1L186.5 81.3L182.3 80.2L177 81.1L174.1 84.8L172.5 85.9L171.1 87.2L170.1 91.9L169.9 99.7L167.9 100.7L166 101L158.3 107.9L162.7 109.8L164.7 111.3L168 115.4L172.6 120L173.5 122.3Z" fill="#4f46e5" fill-rule="evenodd"/></svg>