<svg xmlns="http://www.w3.org/2000/svg" viewBox="0 0 200 200" preserveAspectRatio="xMidYMid meet"><path d="M133.1 85.7L135.3 87L137.3 86.8L135.6 84L137.2 84L150.2 85.8L158.6 88.6L167.3 90L167.8 99.5L161.1 103.3L156.8 107.2L153.3 112.1L144 117.7L132.7 119.4L125.3 119.6L122.5 119.4L119.8 118.4L114.1 119.4L107.2 116.9L101.2 117.5L89.3 116.9L84.9 119.1L80.7 119.5L76.5 119.1L72.9 118.2L64.1 118.3L60.4 116.4L62 105.6L62.1 100.7L59.9 96.7L57.6 94.1L55.8 91.2L59.3 89.2L62.1 86.3L63 82L66.1 80.9L69.8 80.4L86.6 82.4L129.1 83.6L131.5 83.9L133.1 85.7ZM181.1 108.8L175.8 109.2L172.3 108.7L171.1 106.6L177.6 104.7L185.1 105L189.5 106.2L190 106.9L181.1 108.8ZM14.4 111.9L13.8 112L13.1 111.9L12.8 111.7L12.4 111.1L10.5 110.1L10 109.1L10.4 108.1L11.2 107.8L15.2 107.6L15.6 107.7L16.4 108.4L16.4 108.9L16 109.4L15.3 110.6L15 110.9L14.8 111.2L14.7 111.7L14.4 111.9Z" fill="#4f46e5" fill-rule="evenodd"/></svg>