<svg xmlns="http://www.w3.org/2000/svg" viewBox="0 0 200 200" preserveAspectRatio="xMidYMid meet"><path d="M38.9 190L38.9 188.9L38.7 188.4L37.5 186.8L35.2 183.8L33.4 181.5L31.6 179.1L31.6 177.3L31.6 171.7L31.5 160.6L31.5 149.6L31.4 138.5L31.4 132.9L31.4 130.7L31.6 130.3L33.6 128.3L36.4 125.6L39.9 120.4L41.9 117.7L43.5 115.3L43.9 114.6L45.3 113.2L48 112.4L49.7 112.3L55.4 111.2L56.3 110.8L56.8 110.3L57.3 109.2L58.4 107.6L59.8 106.6L62.6 105.2L65.3 104L65.9 103.8L69.1 103.1L69.9 102.8L71.2 102.5L71.7 102.5L76.2 102.8L79.7 103L83.3 103.2L83.7 103.1L86.3 100.3L90.3 95.9L92.8 93.1L96.8 88.8L99.9 85.7L103.2 82.2L106.5 79L110.4 75.2L112.9 72.8L116.8 69.1L120.5 65.6L123.7 62.5L125.7 59.5L127.6 56.6L129.6 53.5L132.1 49.7L134.4 46.2L136.3 43.3L136.3 41.8L136.3 38.6L136.3 36.5L136.3 30.4L136.3 26.7L136.3 23.2L136.3 19.5L138 19.4L142.3 18.4L145.6 17L151.8 16L156.4 13.4L157.3 12.1L158.7 10.5L160.7 10L166 11.9L166.8 12L166.5 13.1L166.3 14.3L165.3 16.3L164.6 18.5L165.1 21.9L165.3 27.5L165.2 28.3L164.8 29.1L164.7 29.7L164.1 29.9L163.9 30.3L164.3 30.4L165.9 29.8L165.9 29.1L166 28.8L167.4 29.5L168.3 29.8L168.6 30.5L168.5 31L167 30.8L166.2 30.4L163.9 31L162.5 31.7L162.1 32.8L161.8 37.1L161.3 39.9L161.2 43.6L159.3 46.1L158.7 47.8L156 51.3L154.5 54.3L154.1 55.7L151.7 59.8L148.4 62.9L147.2 66.9L146 69.4L144.6 71.7L141.7 75.7L140.2 78.5L138.4 83.4L137.8 86.5L132.5 95.4L127.1 102.5L123.7 108.5L117.6 115.5L109.2 124.5L98.3 135.1L95.4 137.3L83.5 143.9L75.7 149.4L71.8 153.1L67.6 156.4L64.3 159.5L54.4 170L53.4 171L52.4 171.9L51.2 173.7L50.3 174.4L47.9 177.4L46.4 179L44.8 180.5L44.1 181.6L43.6 182.8L43 183.5L41.5 186.5L40.2 188.5L38.9 190Z" fill="#4f46e5" fill-rule="evenodd"/></svg>